<svg width="160" height="100" viewBox="0 0 160 100" xmlns="http://www.w3.org/2000/svg">
  <!-- Left wing - with scalloped butterfly wing edges -->
  <path d="M10 50 Q15 20, 40 15 Q65 12, 80 30 Q82 35, 80 40 Q82 42, 80 44 Q82 46, 80 50 
           Q82 54, 80 56 Q82 58, 80 62 Q82 66, 80 70 Q78 75, 75 78 Q72 82, 68 83 
           Q64 84, 60 82 Q56 80, 52 77 Q48 74, 44 70 Q40 66, 36 61 Q32 56, 28 51 
           Q24 46, 20 52 Q16 48, 12 50 Q10 50, 10 50 Z" 
        fill="none" stroke="#22c55e" stroke-width="2.5" stroke-linejoin="round"/>
  
  <!-- Right wing - mirror with same scalloped edges -->
  <path d="M150 50 Q145 20, 120 15 Q95 12, 80 30 Q78 35, 80 40 Q78 42, 80 44 Q78 46, 80 50 
           Q78 54, 80 56 Q78 58, 80 62 Q78 66, 80 70 Q82 75, 85 78 Q88 82, 92 83 
           Q96 84, 100 82 Q104 80, 108 77 Q112 74, 116 70 Q120 66, 124 61 Q128 56, 132 51 
           Q136 46, 140 52 Q144 48, 148 50 Q150 50, 150 50 Z" 
        fill="none" stroke="#22c55e" stroke-width="2.5" stroke-linejoin="round"/>
  
  <!-- Antennae from center top -->
  <path d="M78 30 Q74 18, 70 22" fill="none" stroke="#16a34a" stroke-width="2" stroke-linecap="round"/>
  <path d="M82 30 Q86 18, 90 22" fill="none" stroke="#16a34a" stroke-width="2" stroke-linecap="round"/>
  
  <!-- Antenna tips -->
  <circle cx="70" cy="22" r="1.5" fill="#16a34a"/>
  <circle cx="90" cy="22" r="1.5" fill="#16a34a"/>
</svg>