<?xml version="1.0" encoding="UTF-8" standalone="no"?>
<svg xmlns="http://www.w3.org/2000/svg" viewBox="0 0 200 200" width="200" height="200">
  <!-- Clean butterfly design based on mariposa.png -->
  <g fill="none" stroke="currentColor" stroke-width="12" stroke-linecap="round" stroke-linejoin="round">
    
    <!-- Top left wing -->
    <path d="M 100 100 
             C 80 70, 50 50, 30 60
             C 15 70, 20 90, 40 95
             C 65 100, 85 95, 100 100" />
    
    <!-- Top right wing -->
    <path d="M 100 100 
             C 120 70, 150 50, 170 60
             C 185 70, 180 90, 160 95
             C 135 100, 115 95, 100 100" />
    
    <!-- Bottom left wing -->
    <path d="M 100 100 
             C 80 130, 50 150, 30 140
             C 15 130, 20 110, 40 105
             C 65 100, 85 105, 100 100" />
    
    <!-- Bottom right wing -->
    <path d="M 100 100 
             C 120 130, 150 150, 170 140
             C 185 130, 180 110, 160 105
             C 135 100, 115 105, 100 100" />
    
    <!-- Stylized infinity symbol body -->
    <path d="M 70 100 
             C 70 85, 85 85, 100 100
             C 115 115, 130 115, 130 100
             C 130 85, 115 85, 100 100
             C 85 115, 70 115, 70 100" stroke-width="8" />
    
  </g>
</svg>