<?xml version="1.0" encoding="UTF-8" standalone="no"?>
<!DOCTYPE svg PUBLIC "-//W3C//DTD SVG 1.1//EN" "http://www.w3.org/Graphics/SVG/1.1/DTD/svg11.dtd">
<svg xmlns="http://www.w3.org/2000/svg" version="1.1" viewBox="0.00 0.00 1024.00 1024.00">
<path fill="#121212" d="
  M 567.07 431.02
  C 571.96 428.32 576.71 426.83 582.46 423.74
  Q 601.28 413.64 631.49 402.51
  Q 660.03 392.00 688.96 387.16
  Q 705.17 384.45 720.80 385.87
  Q 722.58 386.03 734.10 388.46
  C 770.25 396.09 797.27 426.07 788.40 464.72
  Q 785.27 478.34 777.71 489.49
  Q 770.42 500.24 767.52 504.52
  C 761.29 513.71 752.74 520.48 741.65 528.12
  C 731.52 535.10 719.38 538.83 706.01 541.97
  Q 691.00 545.49 676.05 544.06
  A 0.42 0.42 0.0 0 0 675.69 544.76
  C 685.58 556.24 692.44 571.87 690.58 586.97
  C 688.24 606.12 673.28 618.86 655.29 624.50
  C 633.90 631.21 610.32 629.10 588.82 622.17
  Q 570.89 616.38 555.05 608.16
  A 1.03 1.01 44.4 0 0 554.10 608.16
  Q 534.44 618.40 512.88 624.31
  Q 488.20 631.08 464.46 627.09
  C 447.04 624.16 428.72 614.94 421.53 597.95
  C 413.82 579.73 420.85 559.33 433.43 544.89
  A 0.53 0.53 0.0 0 0 432.98 544.02
  Q 418.00 545.56 402.21 541.77
  C 390.47 538.95 379.14 535.47 369.02 529.12
  Q 364.23 526.11 356.74 520.27
  C 349.51 514.62 343.87 508.02 338.45 499.89
  Q 336.13 496.39 331.69 489.84
  C 323.53 477.77 318.86 463.55 319.15 448.81
  C 319.70 420.51 340.20 399.22 366.11 390.83
  Q 372.37 388.80 383.77 386.69
  C 398.73 383.93 414.36 385.75 429.25 388.75
  C 462.50 395.45 496.55 408.23 526.85 423.78
  C 532.80 426.83 538.84 428.99 544.20 432.28
  A 0.28 0.28 0.0 0 0 544.61 431.94
  L 531.51 400.75
  A 3.74 3.73 -22.8 0 1 533.51 395.87
  L 533.92 395.70
  A 3.72 3.72 0.0 0 1 538.80 397.69
  L 555.11 436.53
  A 0.29 0.29 0.0 0 0 555.65 436.53
  L 571.88 397.90
  A 3.79 3.78 -67.2 0 1 576.83 395.88
  L 577.14 396.02
  A 3.58 3.57 21.2 0 1 579.24 400.77
  L 566.68 430.67
  A 0.28 0.28 0.0 0 0 567.07 431.02
  Z
  M 542.99 447.62
  Q 542.73 447.04 542.27 446.70
  Q 513.35 425.78 478.33 415.66
  Q 476.99 415.27 458.21 410.02
  Q 447.82 407.11 440.16 406.30
  Q 426.41 404.84 421.75 404.72
  Q 409.30 404.39 399.75 404.62
  C 388.52 404.89 379.89 407.43 369.84 411.43
  Q 359.67 415.47 355.31 419.80
  Q 350.25 424.83 346.76 429.35
  Q 343.62 433.43 341.66 440.93
  Q 337.38 457.28 339.83 471.99
  Q 340.77 477.66 343.24 482.23
  Q 350.75 496.10 362.78 505.97
  Q 370.59 512.39 376.07 515.44
  Q 381.19 518.30 391.91 522.27
  C 395.86 523.72 399.04 524.33 403.54 525.41
  Q 404.56 525.65 412.26 527.88
  Q 419.12 529.87 425.52 530.64
  Q 432.54 531.49 450.98 532.37
  C 454.80 532.55 458.37 533.55 457.19 537.95
  Q 456.51 540.53 455.05 541.07
  Q 442.52 545.79 437.63 558.14
  C 436.01 562.24 433.18 568.90 432.97 573.56
  Q 432.50 583.73 438.18 592.57
  A 7.00 6.85 -86.5 0 0 439.47 594.06
  Q 453.02 605.83 471.02 608.64
  Q 481.76 610.33 491.44 610.59
  C 499.10 610.80 505.51 609.70 513.49 608.23
  Q 516.17 607.73 519.24 606.36
  C 523.06 604.65 528.66 603.92 531.81 602.56
  Q 536.48 600.55 540.64 599.21
  A 0.69 0.69 0.0 0 0 540.85 598.01
  C 536.24 594.50 534.19 591.14 529.42 584.77
  C 525.96 580.14 523.26 575.22 521.42 570.57
  C 513.15 549.63 511.00 526.08 513.38 503.97
  C 515.06 488.44 519.93 468.13 531.62 457.34
  Q 537.49 451.93 542.89 448.01
  A 0.32 0.31 -31.6 0 0 542.99 447.62
  Z
  M 566.18 447.62
  A 0.32 0.31 31.6 0 0 566.28 448.01
  Q 571.68 451.93 577.55 457.34
  C 589.24 468.13 594.11 488.44 595.79 503.97
  C 598.17 526.08 596.02 549.63 587.75 570.57
  C 585.91 575.22 583.21 580.13 579.75 584.76
  C 574.98 591.13 572.93 594.49 568.32 598.00
  A 0.69 0.69 0.0 0 0 568.53 599.20
  Q 572.69 600.54 577.36 602.55
  C 580.51 603.91 586.11 604.64 589.93 606.35
  Q 593.00 607.72 595.68 608.22
  C 603.66 609.69 610.07 610.79 617.73 610.58
  Q 627.41 610.32 638.15 608.63
  Q 656.15 605.82 669.69 594.05
  A 7.00 6.85 86.5 0 0 670.98 592.56
  Q 676.66 583.72 676.19 573.55
  C 675.98 568.89 673.15 562.23 671.53 558.13
  Q 666.64 545.78 654.11 541.07
  Q 652.65 540.53 651.97 537.95
  C 650.79 533.55 654.36 532.55 658.18 532.37
  Q 676.62 531.49 683.64 530.64
  Q 690.04 529.87 696.90 527.88
  Q 704.60 525.65 705.62 525.41
  C 710.12 524.33 713.30 523.71 717.25 522.26
  Q 727.97 518.29 733.09 515.43
  Q 738.57 512.39 746.38 505.97
  Q 758.41 496.10 765.92 482.23
  Q 768.39 477.66 769.33 471.99
  Q 771.78 457.28 767.49 440.93
  Q 765.53 433.43 762.39 429.35
  Q 758.91 424.83 753.85 419.80
  Q 749.49 415.47 739.32 411.43
  C 729.27 407.43 720.64 404.89 709.41 404.62
  Q 699.86 404.39 687.41 404.72
  Q 682.75 404.84 669.00 406.30
  Q 661.34 407.11 650.95 410.02
  Q 632.17 415.27 630.83 415.66
  Q 595.81 425.78 566.90 446.70
  Q 566.44 447.04 566.18 447.62
  Z
  M 554.59 592.82
  C 554.65 592.82 554.76 592.82 554.81 592.79
  C 558.85 590.39 562.36 586.08 565.69 582.93
  C 568.25 580.50 571.07 576.27 572.69 572.43
  C 575.42 565.94 578.07 561.61 579.36 555.58
  Q 582.43 541.29 582.90 524.75
  Q 583.25 512.39 581.73 502.57
  C 579.02 485.12 567.07 470.95 554.93 458.29
  Q 554.75 458.11 554.56 458.11
  Q 554.38 458.11 554.20 458.29
  C 542.06 470.95 530.12 485.13 527.42 502.58
  Q 525.90 512.40 526.25 524.76
  Q 526.73 541.30 529.81 555.59
  C 531.10 561.62 533.75 565.95 536.48 572.44
  C 538.10 576.28 540.93 580.51 543.49 582.93
  C 546.82 586.08 550.33 590.39 554.37 592.79
  C 554.42 592.82 554.53 592.82 554.59 592.82
  Z
  M 439.39 604.16
  Q 439.35 603.91 439.19 603.90
  A 0.10 0.10 0.0 0 0 439.09 604.00
  Q 439.10 604.10 439.25 604.24
  A 0.09 0.08 -73.8 0 0 439.39 604.16
  Z
  M 669.64 604.33
  Q 670.01 604.40 670.24 603.95
  Q 670.42 603.60 669.91 603.69
  A 0.42 0.28 -33.9 0 0 669.64 604.33
  Z
  M 440.03 604.89
  Q 440.61 605.40 440.73 605.42
  A 0.30 0.30 0.0 0 0 441.01 604.93
  Q 441.00 604.92 440.16 604.65
  A 0.14 0.14 0.0 0 0 440.03 604.89
  Z
  M 668.92 604.49
  Q 668.46 604.75 668.38 604.95
  A 0.44 0.25 -16.5 0 0 669.03 605.10
  Q 669.29 604.95 669.30 604.71
  A 0.25 0.25 0.0 0 0 668.92 604.49
  Z"
/>
</svg>
